<svg height="2238" width="720" xmlns="http://www.w3.org/2000/svg">
<rect height="2238" fill="#555" width="720"></rect>
<text fill="#7f7" font-family="Courier New" font-size="12" xml:space="preserve">
<tspan x="10" y="26">└─┬ html-snapshots@0.14.0 </tspan>
<tspan x="10" y="42">  ├── async@2.3.0 </tspan>
<tspan x="10" y="58">  ├─┬ async-lock@0.3.9 </tspan>
<tspan x="10" y="74">  │ └── q@1.4.1 </tspan>
<tspan x="10" y="90">  ├─┬ combine-errors@3.0.3 </tspan>
<tspan x="10" y="106">  │ ├── custom-error-instance@2.1.1 </tspan>
<tspan x="10" y="122">  │ └─┬ lodash.uniqby@4.5.0 </tspan>
<tspan x="10" y="138">  │   ├─┬ lodash._baseiteratee@4.7.0 </tspan>
<tspan x="10" y="154">  │   │ └─┬ lodash._stringtopath@4.8.0 </tspan>
<tspan x="10" y="170">  │   │   └── lodash._basetostring@4.12.0 </tspan>
<tspan x="10" y="186">  │   └─┬ lodash._baseuniq@4.6.0 </tspan>
<tspan x="10" y="202">  │     ├── lodash._createset@4.0.3 </tspan>
<tspan x="10" y="218">  │     └── lodash._root@3.0.1 </tspan>
<tspan x="10" y="234">  ├── lodash@4.17.4 </tspan>
<tspan x="10" y="250">  ├─┬ mkdirp@0.5.1 </tspan>
<tspan x="10" y="266">  │ └── minimist@0.0.8 </tspan>
<tspan x="10" y="282">  ├─┬ phantomjs-prebuilt@2.1.13 </tspan>
<tspan x="10" y="298">  │ ├── es6-promise@4.0.5 </tspan>
<tspan x="10" y="314">  │ ├─┬ extract-zip@1.5.0 </tspan>
<tspan x="10" y="330">  │ │ ├─┬ concat-stream@1.5.0 </tspan>
<tspan x="10" y="346">  │ │ │ ├─┬ readable-stream@2.0.6 </tspan>
<tspan x="10" y="362">  │ │ │ │ ├── core-util-is@1.0.2 </tspan>
<tspan x="10" y="378">  │ │ │ │ ├── isarray@1.0.0 </tspan>
<tspan x="10" y="394">  │ │ │ │ ├── process-nextick-args@1.0.7 </tspan>
<tspan x="10" y="410">  │ │ │ │ ├── string_decoder@0.10.31 </tspan>
<tspan x="10" y="426">  │ │ │ │ └── util-deprecate@1.0.2 </tspan>
<tspan x="10" y="442">  │ │ │ └── typedarray@0.0.6 </tspan>
<tspan x="10" y="458">  │ │ ├── debug@0.7.4 </tspan>
<tspan x="10" y="474">  │ │ ├── mkdirp@0.5.0 </tspan>
<tspan x="10" y="490">  │ │ └─┬ yauzl@2.4.1 </tspan>
<tspan x="10" y="506">  │ │   └─┬ fd-slicer@1.0.1 </tspan>
<tspan x="10" y="522">  │ │     └── pend@1.2.0 </tspan>
<tspan x="10" y="538">  │ ├─┬ fs-extra@0.30.0 </tspan>
<tspan x="10" y="554">  │ │ ├── graceful-fs@4.1.11 </tspan>
<tspan x="10" y="570">  │ │ ├── jsonfile@2.4.0 </tspan>
<tspan x="10" y="586">  │ │ ├── klaw@1.3.1 </tspan>
<tspan x="10" y="602">  │ │ └── path-is-absolute@1.0.1 </tspan>
<tspan x="10" y="618">  │ ├─┬ hasha@2.2.0 </tspan>
<tspan x="10" y="634">  │ │ ├── is-stream@1.1.0 </tspan>
<tspan x="10" y="650">  │ │ └─┬ pinkie-promise@2.0.1 </tspan>
<tspan x="10" y="666">  │ │   └── pinkie@2.0.4 </tspan>
<tspan x="10" y="682">  │ ├── kew@0.7.0 </tspan>
<tspan x="10" y="698">  │ ├── progress@1.1.8 </tspan>
<tspan x="10" y="714">  │ ├─┬ request@2.74.0 </tspan>
<tspan x="10" y="730">  │ │ ├── bl@1.1.2 </tspan>
<tspan x="10" y="746">  │ │ ├── caseless@0.11.0 </tspan>
<tspan x="10" y="762">  │ │ ├── form-data@1.0.1 </tspan>
<tspan x="10" y="778">  │ │ ├─┬ har-validator@2.0.6 </tspan>
<tspan x="10" y="794">  │ │ │ ├─┬ chalk@1.1.3 </tspan>
<tspan x="10" y="810">  │ │ │ │ ├── ansi-styles@2.2.1 </tspan>
<tspan x="10" y="826">  │ │ │ │ ├── escape-string-regexp@1.0.5 </tspan>
<tspan x="10" y="842">  │ │ │ │ ├─┬ has-ansi@2.0.0 </tspan>
<tspan x="10" y="858">  │ │ │ │ │ └── ansi-regex@2.1.1 </tspan>
<tspan x="10" y="874">  │ │ │ │ ├── strip-ansi@3.0.1 </tspan>
<tspan x="10" y="890">  │ │ │ │ └── supports-color@2.0.0 </tspan>
<tspan x="10" y="906">  │ │ │ ├─┬ commander@2.9.0 </tspan>
<tspan x="10" y="922">  │ │ │ │ └── graceful-readlink@1.0.1 </tspan>
<tspan x="10" y="938">  │ │ │ └─┬ is-my-json-valid@2.16.0 </tspan>
<tspan x="10" y="954">  │ │ │   ├── generate-function@2.0.0 </tspan>
<tspan x="10" y="970">  │ │ │   ├─┬ generate-object-property@1.2.0 </tspan>
<tspan x="10" y="986">  │ │ │   │ └── is-property@1.0.2 </tspan>
<tspan x="10" y="1002">  │ │ │   ├── jsonpointer@4.0.1 </tspan>
<tspan x="10" y="1018">  │ │ │   └── xtend@4.0.1 </tspan>
<tspan x="10" y="1034">  │ │ ├── node-uuid@1.4.8 </tspan>
<tspan x="10" y="1050">  │ │ ├── qs@6.2.3 </tspan>
<tspan x="10" y="1066">  │ │ └── tunnel-agent@0.4.3 </tspan>
<tspan x="10" y="1082">  │ ├─┬ request-progress@2.0.1 </tspan>
<tspan x="10" y="1098">  │ │ └── throttleit@1.0.0 </tspan>
<tspan x="10" y="1114">  │ └─┬ which@1.2.14 </tspan>
<tspan x="10" y="1130">  │   └── isexe@2.0.0 </tspan>
<tspan x="10" y="1146">  ├─┬ request@2.81.0 </tspan>
<tspan x="10" y="1162">  │ ├── aws-sign2@0.6.0 </tspan>
<tspan x="10" y="1178">  │ ├── aws4@1.6.0 </tspan>
<tspan x="10" y="1194">  │ ├── caseless@0.12.0 </tspan>
<tspan x="10" y="1210">  │ ├─┬ combined-stream@1.0.5 </tspan>
<tspan x="10" y="1226">  │ │ └── delayed-stream@1.0.0 </tspan>
<tspan x="10" y="1242">  │ ├── extend@3.0.0 </tspan>
<tspan x="10" y="1258">  │ ├── forever-agent@0.6.1 </tspan>
<tspan x="10" y="1274">  │ ├─┬ form-data@2.1.2 </tspan>
<tspan x="10" y="1290">  │ │ └── asynckit@0.4.0 </tspan>
<tspan x="10" y="1306">  │ ├─┬ har-validator@4.2.1 </tspan>
<tspan x="10" y="1322">  │ │ ├─┬ ajv@4.11.5 </tspan>
<tspan x="10" y="1338">  │ │ │ ├── co@4.6.0 </tspan>
<tspan x="10" y="1354">  │ │ │ └─┬ json-stable-stringify@1.0.1 </tspan>
<tspan x="10" y="1370">  │ │ │   └── jsonify@0.0.0 </tspan>
<tspan x="10" y="1386">  │ │ └── har-schema@1.0.5 </tspan>
<tspan x="10" y="1402">  │ ├─┬ hawk@3.1.3 </tspan>
<tspan x="10" y="1418">  │ │ ├── boom@2.10.1 </tspan>
<tspan x="10" y="1434">  │ │ ├── cryptiles@2.0.5 </tspan>
<tspan x="10" y="1450">  │ │ ├── hoek@2.16.3 </tspan>
<tspan x="10" y="1466">  │ │ └── sntp@1.0.9 </tspan>
<tspan x="10" y="1482">  │ ├─┬ http-signature@1.1.1 </tspan>
<tspan x="10" y="1498">  │ │ ├── assert-plus@0.2.0 </tspan>
<tspan x="10" y="1514">  │ │ ├─┬ jsprim@1.4.0 </tspan>
<tspan x="10" y="1530">  │ │ │ ├── assert-plus@1.0.0 </tspan>
<tspan x="10" y="1546">  │ │ │ ├── extsprintf@1.0.2 </tspan>
<tspan x="10" y="1562">  │ │ │ ├── json-schema@0.2.3 </tspan>
<tspan x="10" y="1578">  │ │ │ └── verror@1.3.6 </tspan>
<tspan x="10" y="1594">  │ │ └─┬ sshpk@1.11.0 </tspan>
<tspan x="10" y="1610">  │ │   ├── asn1@0.2.3 </tspan>
<tspan x="10" y="1626">  │ │   ├── assert-plus@1.0.0 </tspan>
<tspan x="10" y="1642">  │ │   ├── bcrypt-pbkdf@1.0.1 </tspan>
<tspan x="10" y="1658">  │ │   ├─┬ dashdash@1.14.1 </tspan>
<tspan x="10" y="1674">  │ │   │ └── assert-plus@1.0.0 </tspan>
<tspan x="10" y="1690">  │ │   ├── ecc-jsbn@0.1.1 </tspan>
<tspan x="10" y="1706">  │ │   ├─┬ getpass@0.1.6 </tspan>
<tspan x="10" y="1722">  │ │   │ └── assert-plus@1.0.0 </tspan>
<tspan x="10" y="1738">  │ │   ├── jodid25519@1.0.2 </tspan>
<tspan x="10" y="1754">  │ │   ├── jsbn@0.1.1 </tspan>
<tspan x="10" y="1770">  │ │   └── tweetnacl@0.14.5 </tspan>
<tspan x="10" y="1786">  │ ├── is-typedarray@1.0.0 </tspan>
<tspan x="10" y="1802">  │ ├── isstream@0.1.2 </tspan>
<tspan x="10" y="1818">  │ ├── json-stringify-safe@5.0.1 </tspan>
<tspan x="10" y="1834">  │ ├─┬ mime-types@2.1.15 </tspan>
<tspan x="10" y="1850">  │ │ └── mime-db@1.27.0 </tspan>
<tspan x="10" y="1866">  │ ├── oauth-sign@0.8.2 </tspan>
<tspan x="10" y="1882">  │ ├── performance-now@0.2.0 </tspan>
<tspan x="10" y="1898">  │ ├── qs@6.4.0 </tspan>
<tspan x="10" y="1914">  │ ├── safe-buffer@5.0.1 </tspan>
<tspan x="10" y="1930">  │ ├── stringstream@0.0.5 </tspan>
<tspan x="10" y="1946">  │ ├─┬ tough-cookie@2.3.2 </tspan>
<tspan x="10" y="1962">  │ │ └── punycode@1.4.1 </tspan>
<tspan x="10" y="1978">  │ ├── tunnel-agent@0.6.0 </tspan>
<tspan x="10" y="1994">  │ └── uuid@3.0.1 </tspan>
<tspan x="10" y="2010">  ├─┬ rimraf@2.6.1 </tspan>
<tspan x="10" y="2026">  │ └─┬ glob@7.1.1 </tspan>
<tspan x="10" y="2042">  │   ├── fs.realpath@1.0.0 </tspan>
<tspan x="10" y="2058">  │   ├─┬ inflight@1.0.6 </tspan>
<tspan x="10" y="2074">  │   │ └── wrappy@1.0.2 </tspan>
<tspan x="10" y="2090">  │   ├── inherits@2.0.3 </tspan>
<tspan x="10" y="2106">  │   ├─┬ minimatch@3.0.3 </tspan>
<tspan x="10" y="2122">  │   │ └─┬ brace-expansion@1.1.6 </tspan>
<tspan x="10" y="2138">  │   │   ├── balanced-match@0.4.2 </tspan>
<tspan x="10" y="2154">  │   │   └── concat-map@0.0.1 </tspan>
<tspan x="10" y="2170">  │   └── once@1.4.0 </tspan>
<tspan x="10" y="2186">  └─┬ xml2js@0.4.17 </tspan>
<tspan x="10" y="2202">    ├── sax@1.2.2 </tspan>
<tspan x="10" y="2218">    └── xmlbuilder@4.2.1</tspan>
</text>
</svg>
